<?xml version="1.0" encoding="utf-8"?>
<!-- Generator: Adobe Illustrator 23.0.1, SVG Export Plug-In . SVG Version: 6.00 Build 0)  -->
<svg version="1.1" id="Слой_1" xmlns="http://www.w3.org/2000/svg" xmlns:xlink="http://www.w3.org/1999/xlink" x="0px" y="0px"
	 viewBox="0 0 26 26" style="enable-background:new 0 0 26 26;" xml:space="preserve">
<style type="text/css">
	.st0{fill:#1D1D1B;}
</style>
<path class="st0" d="M4.2,21.1c2.1,2,5.6,3.9,8.8,3.9s6-1.2,8.1-3.2c0.1,0,0.1-0.1,0.2-0.2c2.3-2.2,3.7-5.2,3.7-8.6
	c0-6.6-5.4-12-12-12S1,6.4,1,13c0,2.9,1,5.4,2.6,7.5L4.4,19c-1-1.6-1.9-3.9-1.9-6C2.5,7.2,7.2,2.5,13,2.5S23.5,7.2,23.5,13
	c0,2.5-0.9,4.7-2.3,6.5c-0.7-2.1-2.5-3.7-5-4.5c1.4-1,2.3-2.6,2.3-4.4c0-3-2.5-5.5-5.5-5.5s-5.5,2.5-5.5,5.5c0,1.8,0.9,3.4,2.3,4.4
	C7.3,15.8,4.9,19,4.2,21.1"/>
</svg>
